# xmcd
#
# Track frame offsets:
#	150
#	18909
#	45055
#	62411
#	85914
#	105544
#	135031
#	165773
#	190944
#	207661
#	229409
#	258625
#	292697
#	315112
#	331680
#
# Disc length: 4673 seconds
#
# Revision: 1
# Processed by: cddbd v1.5.2PL0 Copyright (c) Steve Scherf et al.
# Submitted via: audiograbber 1.83.01
#
DISCID=ae123f0f
DTITLE=Wolf Serno - Die Mission des Wanderchirurgen CD3v6
DYEAR=2006
DGENRE=Hörbuch
TTITLE0=301
TTITLE1=302
TTITLE2=303
TTITLE3=304
TTITLE4=305
TTITLE5=306
TTITLE6=307
TTITLE7=308
TTITLE8=309
TTITLE9=310
TTITLE10=311
TTITLE11=312
TTITLE12=313
TTITLE13=314
TTITLE14=315
EXTD=gelesen von Detlef Bierstedt
EXTT0=
EXTT1=
EXTT2=
EXTT3=
EXTT4=
EXTT5=
EXTT6=
EXTT7=
EXTT8=
EXTT9=
EXTT10=
EXTT11=
EXTT12=
EXTT13=
EXTT14=
PLAYORDER=
